<?xml version="1.0" encoding="utf-8"?>
<!-- Generator: Adobe Illustrator 15.1.0, SVG Export Plug-In . SVG Version: 6.00 Build 0)  -->
<!DOCTYPE svg PUBLIC "-//W3C//DTD SVG 1.0//EN" "http://www.w3.org/TR/2001/REC-SVG-20010904/DTD/svg10.dtd">
<svg version="1.0" id="Layer_1" xmlns="http://www.w3.org/2000/svg" xmlns:xlink="http://www.w3.org/1999/xlink" x="0px" y="0px"
	 width="250.979px" height="141.158px" viewBox="0 0 250.979 141.158" enable-background="new 0 0 250.979 141.158"
	 xml:space="preserve">
<path d="M79.293,141.158H0V0h79.293V141.158z M165.136,0H85.843v141.158h79.293V0z M250.979,0h-79.293v141.158h79.293V0z"/>
<path display="none" d="M79.293,43.674H0V0h79.293V43.674z M165.136,0H85.843v43.674h79.293V0z M250.979,0h-79.293v43.674h79.293V0z
	 M79.293,97.484H0v43.674h79.293V97.484z M165.136,97.484H85.843v43.674h79.293V97.484z M250.979,97.484h-79.293v43.674h79.293
	V97.484z M79.293,48.656H0v43.675h79.293V48.656z M165.136,48.656H85.843v43.675h79.293V48.656z M250.979,48.656h-79.293v43.675
	h79.293V48.656z"/>
</svg>
